<svg enable-background="new 0 0 1733.6 1426.1" viewBox="0 0 1733.6 1426.1" xmlns="http://www.w3.org/2000/svg"><g fill="#663634"><path d="m682.7 1247.9h23.3l130.6-832.1h65.2v-39.8h-82.3c-9.8 0-18.2 7.2-19.7 16.9l-136.9 872c-.1.4 0 .9-.1 1.3 1-10.3 9.5-18.3 19.9-18.3z"/><path d="m1732.9 1262.8-135.5-870c-1.5-9.7-9.9-16.9-19.7-16.9h-83.4v39.9h66.3l129.6 832.1h23.3c11 0 20 8.9 20 20v1c0-.3.1-.6.1-1 0-1.7-.2-3.4-.7-5.1z"/><path d="m941.7 376h512.7v39.9h-512.7z"/><path d="m901.8 415.9v152.6c0 11 8.9 20 20 20 11 0 20-8.9 20-20v-152.6-39.9-79.7c0-141.4 115-256.4 256.4-256.4s256.4 115 256.4 256.4v79.7 39.9 152.6c0 11 8.9 20 20 20s20-8.9 20-20v-152.6-39.9-79.7c-.2-163.4-133.1-296.3-296.5-296.3s-296.3 132.9-296.3 296.3v79.7z"/><path d="m1713.5 1247.9h-23.3-984.2-23.3c-10.4 0-18.8 8-19.8 18.1-.1.6-.2 1.2-.2 1.8v138.2c0 11 8.9 20 20 20h1030.9c11 0 20-8.9 20-20v-137.2-1c-.1-10.9-9.1-19.9-20.1-19.9zm-19.9 138.3h-991v-98.3h991z"/><path d="m711.9 418.4c11 0 20-8.9 20-20 0-11-8.9-20-20-20h-213.9c-11 0-20 8.9-20 20 0 11 8.9 20 20 20z"/><path d="m348.2 704.7c-11 0-20 8.9-20 20 0 11 8.9 20 20 20h334.5c11 0 20-8.9 20-20 0-11-8.9-20-20-20z"/><path d="m653.2 1026.1c0-11-8.9-20-20-20h-264.7c-11 0-20 8.9-20 20 0 11 8.9 20 20 20h264.8c11 0 19.9-9 19.9-20z"/><path d="m382.8 378.5h-69.4c-11 0-20 8.9-20 20 0 11 8.9 20 20 20h69.4c11 0 20-8.9 20-20s-8.9-20-20-20z"/><path d="m120.7 557.5c0 11 8.9 20 20 20h552.5c11 0 20-8.9 20-20 0-11-8.9-20-20-20h-552.6c-11 0-19.9 9-19.9 20z"/><path d="m679.8 863c0-11-8.9-20-20-20h-639.8c-11 0-20 8.9-20 20s8.9 20 20 20h639.9c11-.1 19.9-9 19.9-20z"/></g></svg>