<svg viewBox="0 0 1934.67 1758.07" xmlns="http://www.w3.org/2000/svg"><g fill="none" stroke="#663634" stroke-miterlimit="10" stroke-width="38.28"><path d="m1028.61 1586.76c-28.87-.9-55.17-1.91-77.83-1.66-66.6.7-196.7-5.7-216.6 57.2-23.7 74.9 131.1 70.6 153.9 72.2 186.5 13.1 330.1 40.3 463.6 12.1 197.6-41.7 233-161.7 390.8-219 54.3-19.7 112.6-27.8 190.6-34.3"/><path d="m1519.18 1478.5c-3.5 47.3-89.3 73.4-116.8 81.7-41.9 12.7-85.4 17.8-127.5 29.7-44.4 12.5-87.5 29.4-129.8 47.6-123.1 53.2-160.1-59.7-67.4-95.9 43.2-16.9 104.2-27.3 150.8-58.2 20.8-13.8 34.8-28.5 46.7-43.5 160.6-202.4 276.1-165.5 390.9-149.8 56.5 7.7 112.3-30.2 165.5-50.3 0 0 50.7 109 81.8 148.9"/><path d="m924 1272.5c27.88-7.44 53.24-14.4 75.33-19.3 65-14.4 190.2-50.3 223.9 6.4 40.2 67.5-111.6 98.5-133.4 105.3-178.6 55.2-312.3 114.3-448.7 117.3-201.9 4.4-263.7-104.5-430.4-124.3-57.3-6.8-116-1.4-193.4 10"/><path d="m421.68 1278.6c14.1 45.3 103.7 51.1 132.3 53 43.7 2.8 87.2-2.1 130.9-.1 46.1 2.1 91.9 8.7 137.2 16.9 132 23.8 142.3-94.5 43.9-108.7-45.9-6.6-107.7-2.9-160.1-22.3-23.4-8.7-40.4-19.8-55.3-31.7-202.4-160.5-306.5-98.4-414.8-57-53.3 20.4-116.2-3.9-172.6-11.3 0 0-24.6 117.7-45.8 163.6"/><path d="m612.18 722.1 363.1 418 363-418z"/><path d="m1144.78 498h-339.1l-193.5 224.1h726.1z"/><path d="m805.68 498 169.6 224.1 169.5-224.1"/><path d="m469.18 560.9-156.1-156.2"/><path d="m642.48 326.8-125.5-197.3"/><path d="m1481.28 560.9 156.2-156.2"/><path d="m1308.08 326.8 125.4-197.3"/><path d="m975.28 228.2v-228.2"/></g></svg>