<svg enable-background="new 0 0 402.6 402.6" viewBox="0 0 402.6 402.6" xmlns="http://www.w3.org/2000/svg"><g fill="#663634"><path d="m261.8 286.1-60.5-32.1-60.6 32.1 11.8-67.5-49.3-47.7 67.9-9.6 30.1-61.6 30.1 61.6 67.9 9.6-49.2 47.7zm-60.5-41.2 49.8 26.4-9.7-55.6 40.6-39.2-55.9-7.9-24.8-50.7-24.8 50.7-55.9 7.9 40.6 39.2-9.7 55.6z"/><path d="m197.3 0h8v72.8h-8z"/><path d="m80.7 48.3h8v72.8h-8z" transform="matrix(.7071 -.7071 .7071 .7071 -35.0833 84.7022)"/><path d="m0 197.3h72.8v8h-72.8z"/><path d="m48.3 313.9h72.8v8h-72.8z" transform="matrix(.7071 -.7071 .7071 .7071 -199.9547 152.9896)"/><path d="m197.3 329.7h8v72.8h-8z"/><path d="m313.9 281.5h8v72.8h-8z" transform="matrix(.7071 -.7071 .7071 .7071 -131.6658 317.8667)"/><path d="m329.7 197.3h72.8v8h-72.8z"/><path d="m281.5 80.7h72.8v8h-72.8z" transform="matrix(.7071 -.7071 .7071 .7071 33.207 249.5746)"/><path d="m139.4 39.2h8v45.1h-8z" transform="matrix(.9101 -.4144 .4144 .9101 -12.7178 64.9915)"/><path d="m57.7 121h8v45.1h-8z" transform="matrix(.3505 -.9366 .9366 .3505 -94.3736 151.0752)"/><path d="m39.2 255.2h45.1v8h-45.1z" transform="matrix(.9101 -.4145 .4145 .9101 -101.8501 48.92)"/><path d="m121 336.8h45.1v8h-45.1z" transform="matrix(.3505 -.9366 .9366 .3505 -225.9581 355.8487)"/><path d="m255.2 318.2h8v45.1h-8z" transform="matrix(.9101 -.4144 .4144 .9101 -117.9205 138.0441)"/><path d="m336.8 236.4h8v45.1h-8z" transform="matrix(.3505 -.9366 .9366 .3505 -21.1833 487.434)"/><path d="m318.2 139.4h45.1v8h-45.1z" transform="matrix(.9101 -.4144 .4144 .9101 -28.7927 154.1231)"/><path d="m236.4 57.7h45.1v8h-45.1z" transform="matrix(.3505 -.9366 .9366 .3505 110.3996 282.6582)"/></g></svg>