<svg viewBox="0 0 123.3 71.89" xmlns="http://www.w3.org/2000/svg"><g stroke="#fff" stroke-miterlimit="10"><g fill="#fff" stroke-width=".71"><path d="m44.32 19.83 10.9-10.9-.35-.35c-5.07-5.08-12.06-8.22-19.76-8.22-11.56 0-22.67 10.23-26.97 20.46 1.18-.36 2.45-.55 3.7-.53 4.38-9.84 12.42-19.47 23.27-19.47 5.19 0 10.08 1.75 14.05 4.78 1.46 1.05 2.22 2.68 2.22 4.31 0 1.4-.52 2.8-1.57 3.91 0 0-5.48 5.95-5.48 6z"/><path d="m83.55 29.42h-3.06v15.85c0 5.31-3.16 7.83-7.79 7.83-5.21 0-8.57-1.98-8.57-7.96v-15.72h-3.06v-.17h9.3v.17h-3.02v15.72c0 5 1.58 7.76 5.68 7.76 4.64 0 7.29-2.82 7.29-7.62v-15.85h-3.02v-.17h6.25v.17z"/><path d="m103.33 45.55v7.22h-18.44v-.17h3.06v-23.18h-3.06v-.17h9.3v.17h-3.02v23.18h6.05c3.9 0 5.74-3.22 5.95-7.05h.17z"/><path d="m122.95 45.55v7.22h-17.6l13.47-23.34h-5.48c-4 0-6.15 2.59-6.58 6.05h-.13v-6.21h16.02l-13.47 23.34h7.66c3.9 0 5.74-3.22 5.95-7.05h.17z"/></g><path d="m62.19 61.8h21.78" fill="none" stroke-width=".54"/><path d="m100.39 61.8h21.77" fill="none" stroke-width=".54"/></g><path d="m90.08 59.7h4.21v4.21h-4.21z" fill="#fff" transform="matrix(.70710678 -.70710678 .70710678 .70710678 -16.7 83.28)"/><g stroke="#fff" stroke-miterlimit="10"><path d="m32.67 29.39 13.82.47c2.45 0 7.69.7 7.69 4.31v8.74c0 2.16-.87 4.26-2.39 5.77-4.43 4.37-10.32 7-16.67 7s-12.27-2.5-16.73-7.02c-.04-.04-.11-.05-.16 0-.31.32-1.11.63-1.44.75-.06.02-.08.11-.03.15 4.62 4.08 10.48 6.24 17.01 6.53.47 0 .93.06 1.34.06 6.88 0 13.12-2.51 17.95-6.59.12-.12.23-.17.35-.17h.17c.32 0 .58.26.58.58 0 4.97-.1 15-10.32 19.94-1.57.82-3.5 1.17-5.3 1.17-.41 0-.87 0-1.28-.06-2.04-.18-3.91-.93-5.71-1.81-2.1-1.11-4.08-2.39-6.06-3.61-2.45-1.52-4.9-2.97-7.46-4.26-1.75-.87-3.38-1.22-4.95-1.22-6.65 0-11.37 6.59-11.48 6.76 4.37-2.86 7.87-3.91 10.96-3.91 8.51 0 13.76 7.99 24.25 8.51.35 0 .64.06.99.06s.7-.06 1.05-.06c2.51-.06 5.01-.64 7.29-1.75 4.61-2.27 7.75-6.53 9.56-11.25.47-1.17.82-2.21.99-3.21.23-1.11.29-2.22.29-3.32v-20.11c0-1.17.82-2.22 1.98-2.45h-26.29z" fill="#fff" stroke-width=".71"/><path d="m21.95 23.46c.33-.06.62.23.56.56-.1.54-.27 1.11-.39 1.62-.25 1.08-.41 2.19-.48 3.3-.15 2.3.13 4.55.68 6.78.53 2.16 1.5 4.26 1.48 6.53-.02 2.23-1.41 4.16-3.2 5.37-3.53 2.4-9.26 3.52-12.8.47-4.53-3.89-3.06-11.25-.28-15.71 1.35-2.16 3.13-4.06 5.22-5.52 1.45-1.01 3.09-1.69 4.77-2.21.85-.26 1.7-.48 2.56-.69.58-.14 1.25-.39 1.88-.5z" fill="none" stroke-width="1.28"/><path d="m7.5 48.29c-2.26-.58-3.94-1.82-5.13-3.56-2.58-3.74-.77-8.97-.38-13.09.28-2.91.12-5.96-1.33-8.48-.07-.12.03-.27.17-.26 4.01.42 7.47 1.99 10.5 4.66-3.39 3.42-5.62 7.27-6.26 11.81-.41 2.87.33 6.78 2.44 8.93z" fill="none" stroke-width="1.28"/><path d="m2.18 23.09s8.68-6.14 18.59.67" fill="none" stroke-width="1.28"/><path d="m11.44 22.18c1.22-.21 2.48 0 3.55.63.05.03.1.07.09.12 0 .04-.04.07-.07.09-1.12.82-2.5 1.25-3.88 1.26-1.51.02-2.63-.61-4-1.08-1.64-.56-3.42-.52-5.06.05" fill="none" stroke-linecap="round" stroke-width=".91"/></g></svg>