<svg fill="none" height="47" viewBox="0 0 46 47" width="46" xmlns="http://www.w3.org/2000/svg"><path d="m43.1855 10.5017c0 .3813-.1481.7469-.4118 1.0165-.2638.2696-.6214.421-.9944.421h-36.5625c-.37296 0-.73065-.1514-.99437-.421-.26373-.2696-.41188-.6352-.41188-1.0165 0-.3812.14815-.74687.41188-1.01646.26372-.26958.62141-.42103.99437-.42103h36.5625c.373 0 .7306.15145.9944.42103.2637.26959.4118.63526.4118 1.01646zm-7.0312 11.5h-30.9375c-.37296 0-.73065.1515-.99437.421-.26373.2696-.41188.6353-.41188 1.0165 0 .3813.14815.7469.41188 1.0165.26372.2696.62141.421.99437.421h30.9375c.373 0 .7306-.1514.9944-.421.2637-.2696.4118-.6352.4118-1.0165 0-.3812-.1481-.7469-.4118-1.0165-.2638-.2695-.6214-.421-.9944-.421zm-12.6563 12.9375h-18.2812c-.37296 0-.73065.1515-.99437.421-.26373.2696-.41188.6353-.41188 1.0165 0 .3813.14815.7469.41188 1.0165.26372.2696.62141.421.99437.421h18.2812c.373 0 .7307-.1514.9944-.421s.4119-.6352.4119-1.0165c0-.3812-.1482-.7469-.4119-1.0165-.2637-.2695-.6214-.421-.9944-.421z" fill="#fff"/></svg>