<svg xmlns="http://www.w3.org/2000/svg" width="43" height="43" viewBox="0 0 43 43" fill="none">
  <g opacity="0.3">
    <path d="M8.42811 31.4763C6.65368 29.5245 5.58903 27.3952 5.58903 23.8463C5.58903 17.6358 10.0251 12.1351 16.2356 9.29601L17.8326 11.6028C11.977 14.7967 10.7349 18.8779 10.38 21.5396C11.2672 21.0072 12.5093 20.8298 13.7514 21.0072C16.9454 21.3621 19.4296 23.8463 19.4296 27.2177C19.4296 28.8147 18.7198 30.4117 17.6551 31.6538C16.413 32.8959 14.9935 33.4282 13.2191 33.4282C11.2672 33.4282 9.49277 32.541 8.42811 31.4763ZM26.1724 31.4764C24.398 29.5245 23.3333 27.3952 23.3333 23.8463C23.3333 17.6358 27.7694 12.1351 33.9799 9.29602L35.5768 11.6028C29.7212 14.7967 28.4791 18.8779 28.1243 21.5396C29.0115 21.0072 30.2536 20.8298 31.4957 21.0072C34.6896 21.3621 37.1738 24.0238 37.1738 27.2177C37.1738 28.8147 36.4641 30.4117 35.3994 31.6538C34.1573 32.8959 32.7378 33.4282 30.9633 33.4282C29.0115 33.4282 27.237 32.541 26.1724 31.4764Z" fill="#663634"></path>
  </g>
</svg>
