<?xml version="1.0" encoding="UTF-8"?>
<svg xmlns="http://www.w3.org/2000/svg" width="502" height="213" viewBox="0 0 502 213" fill="none">
  <g clip-path="url(#clip0_2265_476)">
    <path d="M8.41509 53.7949H87.9951V79.2386H87.2697C87.2697 66.1533 77.0411 55.2488 63.9833 54.5219H22.3434V132.743H48.8217C57.0917 132.307 63.6206 125.401 63.6206 117.041H64.346V149.245H63.6206C63.6206 140.885 57.0917 133.979 48.8217 133.543H22.3434V211.764H27.2038V212.491H3.55469V211.764H8.41509V54.5219" fill="#B2872D"></path>
    <path fill-rule="evenodd" clip-rule="evenodd" d="M182.228 211.763V212.49H163.584L147.335 159.858H105.259L96.0465 201.223L93.6526 211.763H105.042V212.49H81.3927V211.763C87.9216 211.763 93.6525 207.329 95.321 201.077L122.452 78.9475L114.69 53.7946H128.618L177.222 211.763H182.228ZM147.117 159.131L122.888 80.4014L105.405 159.131H147.117ZM277.55 187.047H278.275V212.49H201.162L264.202 54.5215H225.319C212.261 55.2485 202.105 66.1529 202.105 79.2382H201.307V53.7946H278.42L215.38 211.763H254.264C267.321 211.037 277.55 200.132 277.55 187.047ZM381.36 187.047H382.157V212.49H304.971L368.084 54.5215H329.201C316.143 55.2485 305.914 66.1529 305.914 79.2382H305.189V53.7946H382.303L319.262 211.763H358.073C371.131 211.037 381.36 200.132 381.36 187.047ZM501.999 211.763V212.49H483.283L467.106 159.858H424.958L415.818 201.223L413.424 211.763H424.813V212.49H401.164V211.763C407.693 211.763 413.424 207.329 415.092 201.077L442.223 78.9475L434.461 53.7946H448.317L496.994 211.763H501.999ZM466.888 159.131L442.659 80.4014L425.176 159.131H466.888ZM87.9942 54.158H8.48666V50.0871H87.9942V54.158ZM96.3367 1.74405L89.1549 32.9307C88.3569 36.3475 87.9216 39.7642 87.9216 43.2536V46.3795H8.48666V43.2536C8.48666 39.7642 8.12394 36.3475 7.32597 32.9307L0.144174 1.74405C0.0716306 1.45326 0.361804 1.23517 0.579434 1.38057C0.869607 1.86521 1.20814 2.34985 1.59504 2.83449C2.27211 3.65838 3.02173 4.50651 3.84388 5.37886C4.35169 5.88773 4.93204 6.4693 5.51238 6.97818C7.76123 9.01367 10.5904 11.0492 13.8549 12.9393C15.2332 13.7389 16.3213 14.6113 17.1919 15.4109C17.2644 15.4836 17.4095 15.629 17.482 15.7017C22.5601 21.2266 17.4095 27.3331 13.8549 29.8048C11.5335 31.4768 12.4765 33.6577 13.8549 35.4024C14.0725 35.6932 14.3627 35.984 14.5803 36.2748C14.943 36.7109 15.3057 37.0017 15.5959 37.2925C15.9586 37.5833 16.1763 37.8014 16.1763 37.8014H36.3433C37.504 37.8014 38.6647 37.5833 39.6803 37.1471C39.9705 37.0502 40.2848 36.9048 40.6234 36.7109C40.6959 36.7109 40.6959 36.6382 40.7685 36.6382C40.9135 36.5656 41.0586 36.4929 41.2037 36.3475C41.4939 36.1294 41.7841 35.984 42.0742 35.6932C42.5095 35.4024 42.8722 34.8935 43.2349 34.4574C43.5976 34.0212 43.9604 33.5123 44.178 33.0034C44.5407 32.2765 44.9034 31.4041 45.1936 30.6045C44.8309 30.6045 44.3956 30.7498 44.1054 30.9679C42.4369 32.2038 40.4783 32.7853 38.3745 32.7853C33.0063 32.7853 28.5812 28.4236 28.5812 22.9714C28.5812 19.0458 32.3534 15.629 37.1413 11.2673C40.6959 8.06862 44.7583 4.43381 48.0228 -0.21875C51.2872 4.43381 55.5673 8.35941 59.0494 11.4853C63.8372 15.8471 67.6095 19.2638 67.6095 23.2621C67.6095 28.6417 63.2569 33.0761 57.8161 33.0761C55.7849 33.0761 53.8263 32.4219 52.1578 31.2587C51.795 30.9679 51.4323 30.8225 51.0696 30.8225C51.3598 31.598 51.65 32.3249 51.9401 33.0034C53.8263 35.984 57.0907 37.8014 60.6453 37.8014H79.7968C79.7968 37.8014 85.4552 33.4396 82.8436 30.4591C82.8436 30.3864 82.771 30.3864 82.771 30.3137C82.5776 30.1198 82.3842 29.9502 82.1907 29.8048C81.562 29.3686 80.9091 28.8355 80.232 28.2055C79.7968 27.7693 79.3857 27.3331 78.9988 26.8969C76.0245 23.1167 74.5737 17.5918 82.626 12.9393C88.9372 9.30446 93.5075 5.08808 95.7563 1.45326C95.8289 1.30787 95.9739 1.30787 96.119 1.30787C96.2641 1.30787 96.4092 1.45326 96.3367 1.74405Z" fill="#B2872D"></path>
  </g>
  <defs>
    <clipPath id="clip0_2265_476">
      <rect width="502" height="213" fill="white"></rect>
    </clipPath>
  </defs>
</svg>
