<?xml version="1.0" encoding="UTF-8"?>
<svg xmlns="http://www.w3.org/2000/svg" version="1.2" viewBox="0 0 692 294" width="692" height="294">
  <title>Path 51</title>
  <style>
		.s0 { fill: #231f20 } 
		.s1 { fill: #1d1d1d } 
	</style>
  <path id="Path 49" class="s0" d="m11.6 75h109.7v35h-1c0-18-14.1-33-32.1-34h-57.4v107.6h36.5c11.4-0.6 20.4-10.1 20.4-21.6h1v44.3h-1c0-11.5-9-21-20.4-21.6h-36.5v107.6h6.7v1h-32.6v-1h6.7v-216.3"></path>
  <path id="Path 50" fill-rule="evenodd" class="s0" d="m251.2 292.3v1h-25.7l-22.4-72.4h-58l-12.7 56.9-3.3 14.5h15.7v1h-32.6v-1c9 0 16.9-6.1 19.2-14.7l37.4-168-10.7-34.6h19.2l67 217.3zm-48.4-72.4l-33.4-108.3-24.1 108.3zm179.8 38.4h1v35h-106.3l86.9-217.3h-53.6c-18 1-32 16-32 34h-1.1v-35h106.3l-86.9 217.3h53.6c18-1 32.1-16 32.1-34zm143.1 0h1.1v35h-106.4l87-217.3h-53.6c-18 1-32.1 16-32.1 34h-1v-35h106.3l-86.9 217.3h53.5c18-1 32.1-16 32.1-34zm166.3 34v1h-25.8l-22.3-72.4h-58.1l-12.6 56.9-3.3 14.5h15.7v1h-32.6v-1c9 0 16.9-6.1 19.2-14.7l37.4-168-10.7-34.6h19.1l67.1 217.3zm-48.4-72.4l-33.4-108.3-24.1 108.3zm-522.3-144.4h-109.6v-5.6h109.6zm11.5-72.1l-9.9 42.9c-1.1 4.7-1.7 9.4-1.7 14.2v4.3h-109.5v-4.3c0-4.8-0.5-9.5-1.6-14.2l-9.9-42.9c-0.1-0.4 0.3-0.7 0.6-0.5q0.6 1 1.4 2 1.4 1.7 3.1 3.5c0.7 0.7 1.5 1.5 2.3 2.2 3.1 2.8 7 5.6 11.5 8.2 1.9 1.1 3.4 2.3 4.6 3.4 0.1 0.1 0.3 0.3 0.4 0.4 7 7.6-0.1 16-5 19.4-3.2 2.3-1.9 5.3 0 7.7 0.3 0.4 0.7 0.8 1 1.2 0.5 0.6 1 1 1.4 1.4 0.5 0.4 0.8 0.7 0.8 0.7h27.8c1.6 0 3.2-0.3 4.6-0.9q0.6-0.2 1.3-0.6c0.1 0 0.1-0.1 0.2-0.1 0.2-0.1 0.4-0.2 0.6-0.4 0.4-0.3 0.8-0.5 1.2-0.9 0.6-0.4 1.1-1.1 1.6-1.7 0.5-0.6 1-1.3 1.3-2 0.5-1 1-2.2 1.4-3.3-0.5 0-1.1 0.2-1.5 0.5-2.3 1.7-5 2.5-7.9 2.5-7.4 0-13.5-6-13.5-13.5 0-5.4 5.2-10.1 11.8-16.1 4.9-4.4 10.5-9.4 15-15.8 4.5 6.4 10.4 11.8 15.2 16.1 6.6 6 11.8 10.7 11.8 16.2 0 7.4-6 13.5-13.5 13.5-2.8 0-5.5-0.9-7.8-2.5-0.5-0.4-1-0.6-1.5-0.6q0.6 1.6 1.2 3c2.6 4.1 7.1 6.6 12 6.6h26.4c0 0 7.8-6 4.2-10.1 0-0.1-0.1-0.1-0.1-0.2q-0.4-0.4-0.8-0.7-1.3-0.9-2.7-2.2-0.9-0.9-1.7-1.8c-4.1-5.2-6.1-12.8 5-19.2 8.7-5 15-10.8 18.1-15.8 0.1-0.2 0.3-0.2 0.5-0.2 0.2 0 0.4 0.2 0.3 0.6z"></path>
  <path id="Path 51" class="s1" d="m644.5 90.6v-13h-4v-1.7h9.6v1.7h-4v13zm7.1 0v-14.7h2.4l2.8 10.4 0.6 2.1q0.2-0.8 0.6-2.3l2.9-10.2h2.2v14.7h-1.6v-12.3l-3.5 12.3h-1.4l-3.5-12.5v12.5z"></path>
</svg>
