<?xml version="1.0" encoding="UTF-8"?>
<!-- Generated by IcoMoon.io -->
<svg xmlns="http://www.w3.org/2000/svg" version="1.1" width="1441" height="512" viewBox="0 0 1441 512">
  <title>Rings</title>
  <g id="icomoon-ignore">
</g>
  <path d="M23.716 106.612c40.117-16.845 110.379-42.334 173.548-62.725 1.552-10.418 2.881-18.175 5.763-23.051 2.438-1.552 6.428-1.552 12.191 2.438 4.655 2.438 6.649 7.093 5.763 9.087-1.108 1.108-1.995 2.438-2.438 4.876 28.814-9.087 55.855-16.401 75.581-21.721 29.479-7.314 70.040-13.521 106.611-13.521 43.885 0 82.895 9.088 90.209 38.123 0.887 5.763-3.99 6.649-5.32 3.768-11.969-19.283-40.118-28.37-78.684-28.37-30.808 0-68.932 5.763-110.822 16.401-21.278 5.763-49.205 13.52-80.9 23.051-7.315 90.21-7.315 147.173-7.757 216.547 27.928-0.443 85.333-0.887 117.694-0.887h36.572c3.768 0 9.087 3.325 11.969 7.757 3.99 3.768 1.995 6.649-1.773 6.649-19.283 0-37.236-0.443-54.082-0.443-29.479 0-84.447 0.443-109.936 1.33l1.552 116.363c7.093 11.526 10.417 35.685 10.417 56.298 0 19.283-2.881 36.128-7.536 36.572-3.989 0.665-9.309-4.212-11.747-8.201 0.665-0.443 0-0.887 0-1.33-3.768-9.752-7.093-79.127-7.093-91.096-3.989-5.32-5.32-10.195-8.644-14.628-25.046-41.891-71.813-75.137-109.049-85.334h-0.886c-2.438 1.108-6.427-0.443-10.195-2.882 0 0-0.444-0.443-0.444-0.887-1.551-0.887-1.995-1.33-2.438-2.438-3.325-3.768-2.438-7.092 0.444-7.757 47.211-4.212 88.215-7.092 129.662-8.644-0.444-23.494-0.444-44.773-0.444-64.499 0-56.076 1.552-100.849 4.876-146.064-64.055 20.169-136.976 46.324-185.073 68.488-5.319 1.773-14.629-6.427-9.309-14.629zM192.609 367.93l-1.108-80.901c-28.814 0.887-60.287 2.882-91.096 5.763 39.453 19.283 72.921 48.762 92.204 75.137z"></path>
  <path d="M408.492 331.36c-1.551-4.433-2.438-9.309-2.438-13.964 0-21.278 14.407-42.999 38.123-43.885 14.85 0 28.814 14.407 23.716 28.37-6.428 15.515-27.041 27.041-43.885 27.041 1.33 9.087 18.175 24.603 35.020 24.603 43.885 0 76.911-31.695 97.302-52.973q-0.443-1.773-0.886-3.99c-3.768-25.489 48.762-41.005 73.365-44.329 7.758-0.887 17.288 8.201 13.52 13.077-17.953 6.206-61.617 14.407-66.937 27.041-2.881 6.649 8.201 11.526 17.731 17.288 18.396 10.195 32.803 17.288 42.334 25.046 10.639 9.087 1.552 22.608-11.082 25.933-8.644 2.438-21.057 3.99-33.69 3.99-11.969 0-23.495-1.551-30.808-4.433-5.763-2.882-10.196-14.85 0.443-12.412q6.649 1.33 15.958 1.33c15.515 0 34.798-2.438 47.211-5.32-11.969-6.206-30.365-15.293-39.896-20.613-7.979-4.654-16.18-8.201-21.721-13.742q-0.443 1.108-1.108 2.216c-13.52 27.928-44.329 51.421-77.576 53.416-28.37 1.551-65.163-3.768-74.695-33.69zM423.342 317.396c20.392-9.309 33.911-22.164 28.592-27.484-10.195-10.195-29.036 15.293-28.592 27.484zM686.213 340.447c0-27.928 0.443-53.86 0.886-72.7 0.443-22.829 1.552-51.2 2.881-80.679-39.896 3.547-77.576 6.428-116.142 13.077-9.087 1.552-19.283-11.083-11.082-13.077 34.355-6.206 68.489-9.974 127.668-14.85 1.995-37.679 4.433-75.802 6.428-105.503-0.443-7.758 18.175-4.876 19.726 4.654-3.324 24.16-6.206 61.839-8.201 99.297 4.433 0 9.087-0.444 13.963-0.887 41.005-2.881 95.972-7.315 143.183-7.315 27.484 0 52.53 1.552 69.818 5.32 4.433 1.995 9.309 6.871 11.082 9.752 0.665 3.768-1.773 5.763-5.763 5.32-21.5-4.433-48.54-5.763-77.576-5.763-51.644 0-107.941 4.655-144.512 7.757-3.99 0.444-7.314 0.887-11.082 0.887l-3.547 80.901c-0.443 31.031-1.773 76.246-1.773 120.132 0 49.205 1.773 96.416 8.201 119.024 1.33 11.083-13.52 1.108-16.845-9.087-5.319-16.845-7.314-91.54-7.314-156.26z"></path>
  <path d="M744.505 324.045c0-10.639 5.319-21.278 17.288-29.479 13.077-8.644 29.479-12.856 46.324-12.856 13.52 0 27.040 2.882 39.010 8.201h0.665l8.201-11.082c2.881-5.32 19.283 5.32 15.737 11.082-2.438 7.092-6.649 15.959-7.536 25.046-0.665 8.201 1.773 17.731 10.418 20.17 22.608 4.433 59.179-15.737 78.684-33.911q0.886-10.639 2.438-23.938c0-3.325 4.876-3.325 9.53-0.887 4.433 2.438 7.314 7.092 7.314 9.974l-0.443 18.84c11.969-15.293 47.654-43.221 74.251-39.010 11.082 1.995 17.732 12.19 14.407 15.959-6.649 7.757-13.521 4.876-13.077 0.887l0.665-3.768c-24.159-0.443-64.277 28.814-75.803 62.060-1.552 3.99-1.552 6.871-3.324 20.834 0.443 6.206-15.515 0-17.51-7.315-1.108-2.882-1.995-9.752-0.443-33.025q-1.995 2.216-4.212 4.654c-12.191 11.969-45.437 27.484-65.607 22.608-15.958-3.768-27.928-12.856-34.355-30.365-13.298 12.19-45.216 36.793-70.705 36.793-6.428 0-12.191-1.551-17.51-4.876-9.53-7.315-14.407-16.401-14.407-26.598zM838.927 299.442c-4.654-1.33-11.525-2.438-18.618-2.438-24.159 0-56.076 9.309-61.395 31.474-1.33 5.763 1.552 11.082 8.866 11.526 23.051-2.882 54.303-22.608 71.148-40.561zM1264.263 357.292c-17.289 0-32.803-1.33-44.773-4.212-15.958-4.433-43.443-24.603-43.443-38.566v-0.665c-16.845 12.634-38.566 32.803-62.726 32.803-11.969 0-25.489-7.536-32.36-18.175-3.324-5.763-4.655-11.082-4.655-16.401 0-8.201 3.768-15.959 12.412-22.608 9.309-7.315 24.602-12.19 43.886-12.19 11.082 0 24.159 1.995 37.679 5.763l6.649 1.995c7.314-9.752 8.201-10.195 8.201-10.639 2.881-5.32 19.283 5.32 16.845 11.082l-0.887 1.551c-4.876 7.536-7.314 16.845-7.314 25.046 0 10.639 4.433 19.726 15.072 23.051 10.196 2.882 25.932 3.99 45.659 3.99 56.963 0 139.858-9.752 161.579-15.959 3.324-1.108 21.278-5.32 23.716-1.551 3.768 3.99-16.401 11.526-19.726 12.634-33.911 11.082-102.843 23.051-155.816 23.051zM1166.961 295.675l0.887-1.108-5.763-0.887c-6.206-1.33-13.077-1.995-19.726-1.995-13.521 0-27.484 2.882-38.566 10.639-6.871 4.433-12.19 13.521-12.19 20.392 0 5.32 3.546 9.531 12.19 9.531 19.726 0 49.649-21.721 63.169-36.572z"></path>
  <path d="M1242.099 277.721v-28.814h-8.866v-3.768h21.056v3.768h-8.644v28.814zM1257.835 277.721v-32.582h5.32l6.206 23.051 1.33 4.876q0.444-1.995 1.33-5.32l6.428-22.608h4.655v32.582h-3.324v-27.262l-7.757 27.262h-3.103l-7.757-27.706v27.706z"></path>
</svg>
